<svg xmlns="http://www.w3.org/2000/svg" viewBox="0 0 480 240"><g fill="#ffffff" stroke="#626262"><rect x="130" y="18" width="60" height="42" rx="0"/><rect x="210" y="18" width="60" height="42" rx="0"/><rect x="290" y="18" width="60" height="42" rx="0"/><rect x="160" y="94" width="110" height="42" rx="0"/><rect x="290" y="94" width="60" height="42" rx="0"/><rect x="190" y="170" width="130" height="42" rx="0" fill="#a12622"/></g><g font-family="monospace" font-size="21" text-anchor="middle" fill="#202020"><text x="160" y="45">l</text><text x="240" y="45">o</text><text x="320" y="45">w</text><text x="215" y="121">lo</text><text x="320" y="121">w</text><text x="255" y="197" fill="#fff">low</text></g><g fill="none" stroke="#626262" stroke-width="1.5"><path d="M160 64L215 87L240 64M215 140L255 163L320 140"/></g><g font-family="sans-serif" font-size="10" fill="#626262"><text x="44" y="44">BYTES</text><text x="44" y="120">MERGE 1</text><text x="44" y="196">MERGE 2</text></g><text x="250" y="237" text-anchor="middle" fill="#626262" font-family="sans-serif" font-size="11">small units → learned tokens</text></svg>
